<svg width="47" height="47" viewBox="0 0 47 47" fill="none" xmlns="http://www.w3.org/2000/svg">
<path d="M43.3594 34.729C49.7192 23.7134 45.945 9.62775 34.9294 3.26789C23.9138 -3.09197 9.82819 0.682257 3.46833 11.6979C-2.89153 22.7135 0.882696 36.7991 11.8983 43.1589C22.9139 49.5188 36.9995 45.7446 43.3594 34.729Z" fill="#DCDCDC"/>
<path d="M30.1795 13.4381L30.8412 31.2206C30.9907 35.244 27.8411 38.6301 23.8254 38.7841C19.8098 38.9381 16.4159 35.784 16.2619 31.7683L15.5992 13.9334C15.576 13.3798 16.0111 12.9142 16.5602 12.8988C17.1138 12.8756 17.5794 13.3106 17.5948 13.8597L18.2697 31.6913C18.3806 34.6121 20.8354 36.8916 23.7562 36.7808C26.677 36.6699 28.9566 34.2151 28.8457 31.2943L28.1806 13.4995C28.1078 11.5564 26.3894 10.0345 24.3615 10.1103C22.386 10.1852 20.8477 11.8421 20.9226 13.8176L21.4093 26.7931C21.4325 27.3467 20.9975 27.8123 20.4484 27.8278C19.8948 27.851 19.4292 27.4159 19.4138 26.8668L18.927 13.8913C18.809 10.821 21.222 8.22497 24.2923 8.10697C25.7789 8.0511 27.2195 8.56078 28.3288 9.5544C29.4647 10.5738 30.1236 11.9515 30.1795 13.4381Z" fill="white"/>
</svg>
